<svg width="108" height="38" viewBox="0 0 108 38" fill="none" xmlns="http://www.w3.org/2000/svg">
<path d="M93.4792 6.82924C93.4792 6.45207 93.7802 6.14632 94.1515 6.14632H96.5874C96.8795 6.14632 97.1201 6.37959 97.1337 6.67605C97.1606 7.26479 98.1511 7.51146 98.5756 7.10972C99.5397 6.19726 100.803 5.73656 102.286 5.73656C106.05 5.73656 108 8.53654 108 12.5999V23.5608C108 23.938 107.699 24.2437 107.328 24.2437H104.672C104.301 24.2437 104 23.938 104 23.5608V13.4877C104 10.517 103.093 8.9463 101.009 8.9463C98.79 8.9463 97.4455 10.517 97.4455 13.4877V23.5608C97.4455 23.938 97.1446 24.2437 96.7733 24.2437H94.1515C93.7802 24.2437 93.4792 23.938 93.4792 23.5608V6.82924Z" fill="#4A4A4B"/>
<path d="M74.9254 11.6878C74.5216 11.6645 74.2269 11.2851 74.3382 10.8901C75.2575 7.62864 78.0998 5.73656 81.7278 5.73656C86.1647 5.73656 88.921 8.33167 88.921 13.317V19.395C88.921 20.2828 89.2571 20.6584 89.9966 20.6584H90.0974C90.4687 20.6584 90.7697 20.9642 90.7697 21.3413V23.5608C90.7697 23.938 90.4687 24.2437 90.0974 24.2437H89.8285C88.6753 24.2437 87.7733 23.9101 87.1327 23.3533C86.6305 22.9168 85.2577 22.7796 84.7431 23.2009C83.6787 24.0724 82.15 24.6535 80.4169 24.6535C76.7531 24.6535 73.8624 22.7072 73.8624 19.4974C73.8624 15.8097 76.4842 14.4097 80.8539 13.6243L84.3577 12.9477C84.6823 12.8851 84.9193 12.5907 84.8762 12.258C84.6257 10.3234 83.4036 9.35605 81.5933 9.35605C80.0976 9.35605 78.9601 10.136 78.4711 11.3329C78.3453 11.6408 78.0593 11.869 77.7316 11.85L74.9254 11.6878ZM78.064 19.2584C78.1312 20.3511 79.0388 21.1706 80.9547 21.1706C83.274 21.1365 84.9546 19.5657 84.9546 16.834C84.9546 16.4961 84.6535 16.2406 84.3262 16.3007L81.795 16.7658C79.543 17.1414 78.0304 17.4828 78.064 19.2584Z" fill="#4A4A4B"/>
<path d="M54.4808 6.82924C54.4808 6.45207 54.7818 6.14632 55.1531 6.14632H57.502C57.7304 6.14632 57.919 6.32779 57.9313 6.55952C57.9565 7.0333 58.7649 7.20172 59.08 6.85155C59.7467 6.11087 60.5941 5.73656 61.6068 5.73656C62.5783 5.73656 63.3427 6.09564 63.9292 6.86598C64.3385 7.40359 65.4776 7.43696 65.9151 6.92285C66.5717 6.15144 67.4325 5.73656 68.4974 5.73656C71.2201 5.73656 72.531 8.12679 72.531 12.8048V23.5608C72.531 23.938 72.23 24.2437 71.8587 24.2437H69.3377C68.9665 24.2437 68.6655 23.938 68.6655 23.5608V12.8048C68.6655 10.0048 68.2621 8.9463 67.2537 8.9463C66.0773 8.9463 65.4386 10.2438 65.4386 12.8048V23.5608C65.4386 23.938 65.1377 24.2437 64.7664 24.2437H62.2454C61.8741 24.2437 61.5732 23.938 61.5732 23.5608V12.8048C61.5732 10.0048 61.1362 8.9463 60.027 8.9463C58.985 8.9463 58.3799 10.2438 58.3799 12.8048V23.5608C58.3799 23.938 58.0789 24.2437 57.7077 24.2437H55.1531C54.7818 24.2437 54.4808 23.938 54.4808 23.5608V6.82924Z" fill="#4A4A4B"/>
<path d="M36.427 21.3413C36.427 20.9641 36.728 20.6584 37.0992 20.6584H42.1748C42.5461 20.6584 42.8471 20.3526 42.8471 19.9755V5.59996C42.8471 4.23412 42.2756 3.58534 40.9647 3.58534H37.5026C37.1313 3.58534 36.8303 3.27959 36.8303 2.90242V0.682922C36.8303 0.305755 37.1313 0 37.5026 0H40.9647C44.8302 0 46.847 1.91218 46.847 5.59996V19.9755C46.847 20.3526 47.148 20.6584 47.5193 20.6584H51.9226C52.2938 20.6584 52.5948 20.9641 52.5948 21.3413V23.5608C52.5948 23.938 52.2938 24.2437 51.9226 24.2437H37.0992C36.728 24.2437 36.427 23.938 36.427 23.5608V21.3413Z" fill="#4A4A4B"/>
<path d="M26.5075 24.6535C21.5328 24.6535 18.0707 20.8633 18.0707 15.195C18.0707 9.52678 21.5328 5.73656 26.5075 5.73656C31.4822 5.73656 34.9444 9.52678 34.9444 15.195C34.9444 20.8633 31.4822 24.6535 26.5075 24.6535ZM22.2723 15.195C22.2723 18.8145 23.8521 21.034 26.5075 21.034C29.1629 21.034 30.7427 18.8145 30.7427 15.195C30.7427 11.5755 29.1629 9.35605 26.5075 9.35605C23.8521 9.35605 22.2723 11.5755 22.2723 15.195Z" fill="#4A4A4B"/>
<path d="M12.8676 12.907C12.5264 12.9266 12.23 12.6812 12.1344 12.3479C11.6058 10.5058 10.1731 9.35605 8.43685 9.35605C5.74781 9.35605 4.20162 11.5755 4.20162 15.195C4.20162 18.8145 5.74781 21.034 8.43685 21.034C10.2697 21.034 11.7138 19.8214 12.2143 17.883C12.3019 17.5438 12.5985 17.2907 12.9433 17.3076L15.8176 17.4477C16.2069 17.4667 16.5012 17.8181 16.4245 18.2063C15.6491 22.1319 12.4318 24.6535 8.43685 24.6535C3.29407 24.6535 0 20.9657 0 15.195C0 9.42434 3.29407 5.73656 8.43685 5.73656C12.3004 5.73656 15.5672 8.19162 16.3258 11.9881C16.4026 12.3727 16.1119 12.721 15.7262 12.7431L12.8676 12.907Z" fill="#4A4A4B"/>
<path d="M37.297 27.7362C37.297 26.8661 37.9981 26.1608 38.8629 26.1608C39.7277 26.1608 40.4288 26.8661 40.4288 27.7362V36.4246C40.4288 37.2947 39.7277 38 38.8629 38C37.9981 38 37.297 37.2947 37.297 36.4246V27.7362Z" fill="#4683C9"/>
<path d="M41.283 26.8769C41.283 26.0068 41.984 25.3015 42.8489 25.3015C43.7137 25.3015 44.4148 26.0068 44.4148 26.8769V35.5653C44.4148 36.4354 43.7137 37.1407 42.8489 37.1407C41.984 37.1407 41.283 36.4354 41.283 35.5653V26.8769Z" fill="#6990E5"/>
<path d="M49.2548 26.8769C49.2548 26.0068 49.9559 25.3015 50.8207 25.3015C51.6856 25.3015 52.3866 26.0068 52.3866 26.8769V35.5653C52.3866 36.4354 51.6856 37.1407 50.8207 37.1407C49.9559 37.1407 49.2548 36.4354 49.2548 35.5653V26.8769Z" fill="#6990E5"/>
<path d="M45.2689 27.7362C45.2689 26.8661 45.97 26.1608 46.8348 26.1608C47.6996 26.1608 48.4007 26.8661 48.4007 27.7362V36.4246C48.4007 37.2947 47.6996 38 46.8348 38C45.97 38 45.2689 37.2947 45.2689 36.4246V27.7362Z" fill="#4683C9"/>
</svg>
